<?xml version="1.0" encoding="UTF-8" standalone="no"?>
<svg
   width="527.2738"
   zoomAndPan="magnify"
   viewBox="0 0 395.45535 99.401879"
   height="132.53584"
   preserveAspectRatio="xMidYMid"
   version="1.0"
   id="svg87"
   sodipodi:docname="pln.svg"
   inkscape:version="1.4 (e7c3feb1, 2024-10-09)"
   xmlns:inkscape="http://www.inkscape.org/namespaces/inkscape"
   xmlns:sodipodi="http://sodipodi.sourceforge.net/DTD/sodipodi-0.dtd"
   xmlns="http://www.w3.org/2000/svg"
   xmlns:svg="http://www.w3.org/2000/svg">
  <sodipodi:namedview
     id="namedview87"
     pagecolor="#ffffff"
     bordercolor="#666666"
     borderopacity="1.0"
     inkscape:showpageshadow="2"
     inkscape:pageopacity="0.0"
     inkscape:pagecheckerboard="0"
     inkscape:deskcolor="#d1d1d1"
     inkscape:zoom="2.018"
     inkscape:cx="207.87909"
     inkscape:cy="132.80476"
     inkscape:window-width="1840"
     inkscape:window-height="1051"
     inkscape:window-x="2994"
     inkscape:window-y="118"
     inkscape:window-maximized="0"
     inkscape:current-layer="svg87" />
  <defs
     id="defs1">
    <g
       id="g1" />
    <clipPath
       id="a4443f0f4c">
      <path
         d="m 27.488281,109 h 99.687499 v 99.53516 H 27.488281 Z m 0,0"
         clip-rule="nonzero"
         id="path1" />
    </clipPath>
  </defs>
  <g
     id="g4">
    <g
       clip-path="url(#a4443f0f4c)"
       id="g2"
       transform="translate(-27.61383,-109.13328)">
      <path
         fill="#ff7723"
         d="m 118.04688,177.75781 c -1.60547,-1.85156 -3.47266,-3.67578 -4.00391,-6.0664 -0.51953,-2.32422 0.32812,-4.69922 0.90234,-7.00782 3.5,-14.08593 -3.57031,-21.73047 -5.39843,-30.46875 -0.92969,-4.45312 -0.55469,-9.08593 -1.28907,-13.57421 -1.83593,-11.22266 -10.535154,-14.85547 -19.66406,-8.13282 -9.066406,6.67969 -7.5625,11.14453 -29.695312,15.53906 -5.46875,-3.67968 -11.65625,-6.28906 -18.109376,-7.62499 -6.855468,-1.42188 -10.605468,1.05468 -10.027343,9.7539 0.523437,7.93359 2.320312,15.78516 5.296875,23.15625 1.875,4.64844 1.035156,5.40234 -2.109375,8.64844 -11.011719,11.38281 -4.488281,30.63672 -3.714844,35.33984 0.140625,0.85547 0.01563,2 1.214844,2.82813 0.105469,0.0742 0.851562,0.33203 0.871093,0.38281 -4.128906,-11.13672 -6.410156,-33.69531 4.898438,-37.06641 3.800781,-1.13281 8.0625,0.54297 11.257812,2.55078 15.828126,9.94141 7.582032,25.75782 -3.601562,21.97657 -3.378906,-1.14453 -6.035156,-4.01563 -7.289062,-7.35547 -0.324219,-0.86719 -1.289063,-1.95703 -1.894532,-1.25781 -0.953125,1.09375 2.210938,9.39843 10.011719,10.61718 3.019531,0.46875 6.207031,-0.17968 9.105469,0.79688 4.519531,1.51953 7.050781,6.51953 11.414062,8.4375 4.019532,1.76953 9.597656,0.6875 12.089844,5.14453 0,0 -0.214844,0.72266 -0.460938,1.70703 -0.128906,0.51563 -0.195312,1.02344 -0.386718,1.51563 -0.08594,0.21875 -0.125,0.49218 0.02734,0.66796 0.152343,0.17969 1.195312,0.58204 1.472656,0.29297 0.363281,-0.38672 0.320312,-0.7539 0.824218,-2.69531 0.07422,-0.28906 0.664063,-2.49609 0.925782,-2.9375 1.921875,-3.22266 4.710937,-5.93359 8.023437,-7.70312 11.500003,-6.15235 19.714853,2.93359 18.750003,10.61328 0.69141,0.52343 1.77735,0.0664 2.17969,-0.70313 0.92187,-1.75781 -0.75391,-8.45312 -6.17578,-12.48828 7.80078,-13.67578 7.95703,-14.59766 9.71484,-15.03906 1.97656,-0.5 3.71485,1.72656 3.74219,3.76562 0.0273,2.03516 -1,3.91797 -1.57031,5.8711 -1.9961,6.85156 2.55859,14.89843 9.46093,16.70703 0.75782,0.17969 1.42188,0.125 1.875,-0.44141 0.21875,-0.27734 0.33204,-0.625 0.33985,-0.97656 0.15234,-8.98438 -3.1211,-17.98828 -9.00781,-24.77344 z m -74.441411,-34.5 c -1.546875,1.15625 -2.894531,2.1211 -4.734375,-0.8789 -2.710938,-4.42969 -3.023438,-6.97266 -3.519532,-9.10938 -0.242187,-1.03125 -0.480468,-2.12109 -0.167968,-3.13281 0.914062,-2.95703 5.546875,-1.83203 7.40625,-0.76563 1.195312,0.6836 5.445312,2.51563 5.617187,6.92578 0.113281,2.78907 -2.546875,5.42188 -4.601562,6.96094 z m 67.445311,28.85938 c -1.19922,2.64453 -1.84765,10.5625 -14.464842,16.58203 -9.589844,4.57422 -13.886719,6.48828 -20.421876,6.19922 -7.761718,-0.34375 -17.855468,-5.66407 -18.699218,-6.20703 -0.453125,-0.28907 -1.269532,-0.61719 -0.792969,-1.21094 0.210937,-0.26172 0.519531,-0.40625 0.746094,-0.64453 0.503906,-0.51953 0.839843,-1.16797 1.300781,-1.72657 1.75,-2.1289 1.238281,-5.48437 0.4375,-8.40625 -0.734375,-2.66406 -1.421875,-5.4414 -3.324219,-7.55078 -0.585937,-0.64843 -1.039062,-1.43359 -1.675781,-2.04687 -1.632812,-1.5625 0.90625,-1.04297 5.570312,-9.51172 1.984376,-3.59375 3.609376,-5.84766 4.320313,-14.05859 0.214844,-2.46485 0.5625,-5.33594 -0.332031,-7.70313 -0.417969,-1.11328 -0.992188,-2.59766 -1.753906,-3.51562 -1.820313,-2.19532 3.085937,-3.19141 4.238281,-3.50782 4.921875,-1.36328 10.109375,-2.02734 11.332031,-2.02734 0.679688,0 1.078125,0.0352 1.652344,-0.43359 1.40625,-1.16016 2.34375,-3.27735 3.546875,-4.6836 2.335937,-2.73437 4.867187,-5.21093 7.945312,-7.08984 1.957031,-1.19922 4.867188,-2.99609 7.292969,-2.61328 6.46094,1.01172 10.67969,14.05469 7.40625,22.82422 -0.25391,0.67578 -0.30078,1.08984 0.16406,1.70703 5.25782,6.99609 6.58203,10.36328 7.41797,18.77343 0.62891,6.34375 -0.74609,14.29297 -1.90625,16.85157 z m 0,0"
         fill-opacity="1"
         fill-rule="nonzero"
         id="path2" />
    </g>
    <path
       fill="#ff7723"
       d="m 25.515076,65.51125 c 0.382813,0.375 1.480469,1.74219 1.453125,2.28516 -0.03125,0.66015 -0.707031,1.23828 -1.363281,1.02343 -0.503906,-0.16796 -2.5625,-1.84765 -2.554688,-3.65625 0.0078,-0.84765 1.484376,-0.62109 2.464844,0.34766 z m 0,0"
       fill-opacity="1"
       fill-rule="nonzero"
       id="path3" />
    <path
       fill="#ff7723"
       d="m 19.893982,70.98391 c -0.449218,-0.32422 -0.53125,-0.95313 -0.710937,-1.41797 -0.585937,-1.48828 -1.59375,-1.19141 -1.347656,-2.06641 0.292969,-1.04687 1.007812,-0.74219 1.691406,-0.17578 0.539063,0.44141 1.085937,0.89844 1.476563,1.47656 0.222656,0.32813 0.988281,2.1875 0.148437,2.24219 -0.410156,0.0273 -0.894531,0.19531 -1.257813,-0.0586 z m 0,0"
       fill-opacity="1"
       fill-rule="nonzero"
       id="path4" />
    <path
       fill="#ff7723"
       d="m 15.003358,73.85891 c -1.035157,-0.0391 -0.234376,-1.2461 -1.871094,-3.41407 -0.144532,-0.1914 -0.183594,-0.92187 -0.03125,-1.09765 0.480468,-0.57813 1.519531,0.42187 1.988281,0.99219 1.363281,1.67187 1.085937,3.55859 -0.08594,3.51953 z m 0,0"
       fill-opacity="1"
       fill-rule="nonzero"
       id="path5" />
    <path
       fill="#ff7723"
       d="m 60.518982,70.98781 c -0.269531,-0.0586 -0.484374,-0.23437 -0.757812,-0.27343 -1.152344,-0.16407 -2.085938,1.40234 -2.472656,2.27734 -1.164063,2.63281 -7.914063,2.26953 -9.457032,-0.0742 -0.671874,-1.01953 -0.222656,-2.37109 0.4375,-2.57031 0.535157,-0.16406 1.011719,0.34375 1.402344,0.74609 1.371094,1.42188 3.742188,2.17578 5.496094,0.97656 0.933594,-0.63671 1.195312,-1.52343 1.527344,-2.53125 0.53125,-1.625 -0.246094,-3.9414 -0.226563,-4.85156 0.03125,-1.52344 -4.710937,-0.48437 -5.28125,-2.91797 -0.171875,-0.72656 0.203125,-1.47265 0.65625,-2.0664 2.898438,-3.80078 8.664063,-3.33594 9.433594,-1.48828 0.5,1.19531 -0.808594,2.85156 -1.527344,4.32421 -0.640625,1.3086 -0.65625,2.60547 -0.398437,4.01563 0.507812,2.75391 6.40625,2.98047 7.003906,0.61719 0.195312,-0.76563 0.335938,-1.55469 0.300781,-2.36719 -0.05078,-1.12891 1.5,-1.10547 2.238283,-0.83594 1.09766,0.41016 0.55469,2 0.50781,2.89063 -0.0937,1.625 -0.77734,1.67968 -2.117186,2.90625 -0.523438,0.48047 -0.960938,1.0039 -1.695313,1.13672 -1.128906,0.20312 -4.378906,0.24218 -5.070313,0.0859 z m 0,0"
       fill-opacity="1"
       fill-rule="nonzero"
       id="path6" />
    <path
       fill="#ff7723"
       d="m 69.093204,23.05031 c -1.320315,-0.30078 -2.152346,-0.79297 -6.67969,-3.09375 -1.648438,-0.83984 -4.957032,-1.23828 -2.238282,-5.36718 1.492188,-2.26563 3.457032,-4.58594 5.820313,-5.96094 1.554687,-0.90625 3.710939,-1.59766 5.457029,-0.83594 1.14454,0.5 1.62501,1.83985 1.86329,2.97266 0.32812,1.54297 0.73437,3.07031 0.82812,4.65234 0.25782,4.28125 -0.82031,8.60156 -5.05078,7.63281 z M 68.835394,9.88625 c -2.269536,-0.25781 -4.250005,2.92578 -5.445318,4.41797 -1.363281,1.71094 -0.402344,2.09766 1.167969,3.33203 1.996094,1.57422 5.183599,2.85547 5.921879,2.96875 0.80859,0.12109 0.79687,-0.35937 0.80078,-1.07031 0.004,-1.89453 -0.23438,-3.78516 -0.69141,-5.625 -0.23828,-0.96484 -0.68359,-3.90234 -1.7539,-4.02344 z m 0,0"
       fill-opacity="1"
       fill-rule="nonzero"
       id="path7" />
    <path
       fill="#ff7723"
       d="m 69.136174,46.87453 c -2.089848,0.91406 -1.824223,2.3125 -2.585942,3.45703 -1.015624,1.53125 -4.640624,-1.66406 0.421876,-4.45703 1.328126,-0.73437 2.210936,-2.13281 4.464846,-1.34375 3.16406,1.10938 3.09766,3.17969 1.66016,3.46485 -1.84766,0.36328 -1.95313,-2 -3.96094,-1.1211 z m 0,0"
       fill-opacity="1"
       fill-rule="nonzero"
       id="path8" />
    <path
       fill="#ff7723"
       d="m 36.382264,58.23 c -0.171875,0.25391 -0.230469,0.60547 -0.4375,0.83984 -0.222656,0.25 -0.804688,0.47266 -1.128906,0.32422 -0.894532,-0.41015 -1.105469,-1.03125 -0.671876,-1.89843 1.761719,-3.51563 3.796876,-4.07813 7.652344,-3.2461 0.710938,0.15235 1.398438,0.51172 1.703125,1.3125 0.300781,0.78125 -0.773437,1.19141 -1.390625,1.1211 -0.980468,-0.10547 -3.195312,-2.17579 -5.726562,1.54687 z m 0,0"
       fill-opacity="1"
       fill-rule="nonzero"
       id="path9" />
    <path
       fill="#ff7723"
       d="m 36.66742,71.62063 c -0.34375,0.51171 -1.214844,0.83203 -1.3125,0.83984 -0.613281,0.0469 -1.125,-0.84375 -1.023438,-1.37109 0.355469,-1.89844 3.875,-3.1836 5.109376,-2.09766 0.914062,0.80859 0.917968,2.16016 -1.023438,2.14062 -0.761719,-0.008 -1.261719,-0.23437 -1.75,0.48829 z m 0,0"
       fill-opacity="1"
       fill-rule="nonzero"
       id="path10" />
    <path
       fill="#ff7723"
       d="m 41.546326,74.80422 c -0.0078,0.62891 -0.566406,0.875 -1.101562,0.98047 -0.636719,0.125 -1.125,0.1289 -1.476563,0.77734 -0.25,0.46875 -0.800781,0.83594 -1.296875,0.9961 -1.167968,0.38671 -2.070312,-0.52735 -1.585937,-1.4336 0.136719,-0.26172 0.351562,-0.47656 0.558593,-0.6875 0.652344,-0.65234 1.558594,-2.10547 2.585938,-1.94531 0.625,0.0977 1.238281,0.15234 1.804688,0.45703 0.472656,0.25391 0.519531,0.32813 0.511718,0.85547 z m 0,0"
       fill-opacity="1"
       fill-rule="nonzero"
       id="path11" />
    <path
       fill="#ff7723"
       d="m 75.808054,54.66359 c -0.67188,0.2461 -1.31641,0.89844 -2.08204,0.78125 -0.55859,-0.0859 -1.03515,-0.86328 -0.9414,-1.41015 0.0977,-0.55469 1.10547,-0.82031 1.53906,-0.9961 0.66016,-0.27343 3.28125,-1.21093 4.14453,-1.13671 0.7461,0.0664 0.64063,0.91796 0.48047,1.66796 -0.0156,0.0781 -0.0742,0.17188 -0.14062,0.20704 -0.44532,0.23046 -0.79688,0.49218 -1.30079,0.59375 -0.5664,0.11328 -1.15234,0.0898 -1.69921,0.29296 z m 0,0"
       fill-opacity="1"
       fill-rule="nonzero"
       id="path12" />
    <path
       fill="#ff7723"
       d="m 38.515076,63.51906 c 0.628906,0.0703 0.746094,0.90235 0.632813,1.39844 -0.15625,0.69531 -0.851563,0.81641 -1.429688,1.07813 -0.441406,0.20312 -2.941406,1.33984 -3.488281,1.39062 -1.332031,0.12109 -0.675781,-1 -0.164062,-1.52734 1.203124,-1.23438 3.910156,-2.40235 4.449218,-2.33985 z m 0,0"
       fill-opacity="1"
       fill-rule="nonzero"
       id="path13" />
    <path
       fill="#ff7723"
       d="m 77.140084,64.49172 c -0.71875,0.16797 -1.10938,-0.0859 -1.3711,-0.78906 -0.13281,-0.34766 0.0781,-0.75391 0.38282,-0.92969 0.90625,-0.52344 6.74609,0.0859 5.33984,1.58984 -1.93359,2.0625 -1.88281,-0.46484 -4.35156,0.12891 z m 0,0"
       fill-opacity="1"
       fill-rule="nonzero"
       id="path14" />
    <path
       fill="#ff7723"
       d="m 78.706484,58.20656 c -0.79687,-0.15234 -1.60937,0.35938 -2.47656,0.62891 -0.41797,0.12891 -0.79687,0.004 -1.13281,-0.13672 -0.34375,-0.13672 -0.16016,-0.67578 -0.0117,-0.91016 0.22656,-0.36328 0.66016,-0.5 1.05469,-0.59765 3.82031,-0.96094 3.82422,-1.17188 4.38672,-0.89063 0.45703,0.38282 0.5664,0.88672 0.41406,1.42188 -0.0586,0.20312 -0.34766,0.28906 -0.59766,0.33594 -0.48437,0.0977 -0.97656,0.10156 -1.63672,0.14843 z m 0,0"
       fill-opacity="1"
       fill-rule="nonzero"
       id="path15" />
    <g
       fill="#000000"
       fill-opacity="0.051"
       id="g33"
       transform="translate(-27.61383,-109.13328)">
      <g
         transform="translate(219.88054,195.99513)"
         id="g32">
        <g
           id="g31" />
      </g>
    </g>
    <g
       fill="#ff7723"
       fill-opacity="1"
       id="g69"
       transform="translate(-27.61383,-109.13328)">
      <g
         transform="translate(219.88054,195.99513)"
         id="g68">
        <g
           id="g67" />
      </g>
    </g>
    <g
       id="g3"
       transform="matrix(1.4111494,0,0,2.0721884,-39.867408,-109.23412)">
      <g
         fill="#000000"
         fill-opacity="0.051"
         id="g18"
         transform="translate(-27.61383,-109.13328)">
        <g
           transform="translate(130.65254,195.99513)"
           id="g17">
          <g
             id="g16">
            <path
               d="m 7.734375,-15.890625 c 0.550781,-0.863281 1.3125,-1.5625 2.28125,-2.09375 0.976563,-0.53125 2.117187,-0.796875 3.421875,-0.796875 1.519531,0 2.898438,0.390625 4.140625,1.171875 1.238281,0.773437 2.21875,1.875 2.9375,3.3125 0.71875,1.4375 1.078125,3.109375 1.078125,5.015625 0,1.898438 -0.359375,3.570312 -1.078125,5.015625 -0.71875,1.449219 -1.699219,2.570313 -2.9375,3.359375 C 16.335938,-0.125 14.957031,0.265625 13.4375,0.265625 12.15625,0.265625 11.019531,0 10.03125,-0.53125 9.050781,-1.0625 8.285156,-1.75 7.734375,-2.59375 V 8.828125 H 2.0625 v -27.34375 h 5.671875 z m 8.09375,6.609375 c 0,-1.414062 -0.398437,-2.523438 -1.1875,-3.328125 -0.78125,-0.8125 -1.746094,-1.21875 -2.890625,-1.21875 -1.136719,0 -2.09375,0.414063 -2.875,1.234375 -0.78125,0.8125 -1.171875,1.929688 -1.171875,3.34375 0,1.417969 0.390625,2.539062 1.171875,3.359375 0.78125,0.8125 1.738281,1.21875 2.875,1.21875 1.125,0 2.082031,-0.414063 2.875,-1.25 0.800781,-0.832031 1.203125,-1.953125 1.203125,-3.359375 z m 0,0"
               id="path16" />
          </g>
        </g>
      </g>
      <g
         fill="#000000"
         fill-opacity="0.051"
         id="g21"
         transform="translate(-27.61383,-109.13328)">
        <g
           transform="translate(153.16678,195.99513)"
           id="g20">
          <g
             id="g19">
            <path
               d="m 10.484375,0.265625 c -1.8125,0 -3.445313,-0.382813 -4.890625,-1.15625 -1.449219,-0.78125 -2.589844,-1.890625 -3.421875,-3.328125 -0.835937,-1.4375 -1.25,-3.113281 -1.25,-5.03125 0,-1.90625 0.421875,-3.582031 1.265625,-5.03125 0.84375,-1.445312 1.992188,-2.554688 3.453125,-3.328125 1.457031,-0.78125 3.09375,-1.171875 4.90625,-1.171875 1.8125,0 3.445313,0.390625 4.90625,1.171875 1.457031,0.773437 2.609375,1.882813 3.453125,3.328125 0.84375,1.449219 1.265625,3.125 1.265625,5.03125 0,1.898438 -0.429687,3.570312 -1.28125,5.015625 -0.855469,1.449219 -2.015625,2.5625 -3.484375,3.34375 -1.46875,0.773437 -3.109375,1.15625 -4.921875,1.15625 z m 0,-4.90625 c 1.082031,0 2.003906,-0.394531 2.765625,-1.1875 0.757812,-0.800781 1.140625,-1.941406 1.140625,-3.421875 0,-1.488281 -0.371094,-2.628906 -1.109375,-3.421875 -0.742188,-0.789063 -1.652344,-1.1875 -2.734375,-1.1875 -1.105469,0 -2.023437,0.390625 -2.75,1.171875 -0.730469,0.78125 -1.09375,1.929688 -1.09375,3.4375 0,1.480469 0.359375,2.621094 1.078125,3.421875 0.71875,0.792969 1.617188,1.1875 2.703125,1.1875 z m 0,0"
               id="path18" />
          </g>
        </g>
      </g>
      <g
         fill="#000000"
         fill-opacity="0.051"
         id="g24"
         transform="translate(-27.61383,-109.13328)">
        <g
           transform="translate(174.28838,195.99513)"
           id="g23">
          <g
             id="g22">
            <path
               d="m 4.90625,-20.4375 c -0.992188,0 -1.804688,-0.289062 -2.4375,-0.875 -0.625,-0.582031 -0.9375,-1.304688 -0.9375,-2.171875 0,-0.882813 0.3125,-1.617187 0.9375,-2.203125 0.632812,-0.59375 1.445312,-0.890625 2.4375,-0.890625 0.976562,0 1.78125,0.296875 2.40625,0.890625 0.632812,0.585938 0.953125,1.320312 0.953125,2.203125 0,0.867187 -0.320313,1.589844 -0.953125,2.171875 -0.625,0.585938 -1.429688,0.875 -2.40625,0.875 z m 2.828125,1.921875 V 0 H 2.0625 v -18.515625 z m 0,0"
               id="path21" />
          </g>
        </g>
      </g>
      <g
         fill="#000000"
         fill-opacity="0.051"
         id="g27"
         transform="translate(-27.61383,-109.13328)">
        <g
           transform="translate(184.06997,195.99513)"
           id="g26">
          <g
             id="g25">
            <path
               d="m 13.328125,-18.703125 c 2.175781,0 3.910156,0.703125 5.203125,2.109375 1.289062,1.398438 1.9375,3.324219 1.9375,5.78125 V 0 h -5.640625 v -10.046875 c 0,-1.238281 -0.324219,-2.203125 -0.96875,-2.890625 -0.636719,-0.6875 -1.496094,-1.03125 -2.578125,-1.03125 -1.085938,0 -1.949219,0.34375 -2.59375,1.03125 -0.636719,0.6875 -0.953125,1.652344 -0.953125,2.890625 V 0 H 2.0625 v -18.515625 h 5.671875 v 2.453125 c 0.570313,-0.8125 1.34375,-1.453125 2.3125,-1.921875 0.976563,-0.476563 2.070313,-0.71875 3.28125,-0.71875 z m 0,0"
               id="path24" />
          </g>
        </g>
      </g>
      <g
         fill="#000000"
         fill-opacity="0.051"
         id="g30"
         transform="translate(-27.61383,-109.13328)">
        <g
           transform="translate(206.41842,195.99513)"
           id="g29">
          <g
             id="g28">
            <path
               d="M 12.375,-4.8125 V 0 H 9.484375 C 7.429688,0 5.828125,-0.5 4.671875,-1.5 3.523438,-2.507812 2.953125,-4.15625 2.953125,-6.4375 v -7.359375 h -2.25 v -4.71875 h 2.25 v -4.5 H 8.625 v 4.5 h 3.71875 v 4.71875 H 8.625 V -6.375 c 0,0.554688 0.128906,0.953125 0.390625,1.203125 0.269531,0.242187 0.710937,0.359375 1.328125,0.359375 z m 0,0"
               id="path27" />
          </g>
        </g>
      </g>
      <g
         fill="#000000"
         fill-opacity="0.051"
         id="g36"
         transform="translate(-27.61383,-109.13328)">
        <g
           transform="translate(226.91002,195.99513)"
           id="g35">
          <g
             id="g34">
            <path
               d="M 7.734375,-24.546875 V 0 H 2.0625 v -24.546875 z m 0,0"
               id="path33" />
          </g>
        </g>
      </g>
      <g
         fill="#000000"
         fill-opacity="0.051"
         id="g39"
         transform="translate(-27.61383,-109.13328)">
        <g
           transform="translate(236.69162,195.99513)"
           id="g38">
          <g
             id="g37">
            <path
               d="m 19.5,-9.546875 c 0,0.53125 -0.03125,1.085937 -0.09375,1.65625 H 6.5625 c 0.09375,1.148437 0.460938,2.027344 1.109375,2.640625 0.65625,0.605469 1.457031,0.90625 2.40625,0.90625 1.414063,0 2.398437,-0.597656 2.953125,-1.796875 h 6.046875 c -0.3125,1.21875 -0.875,2.320313 -1.6875,3.296875 -0.804687,0.96875 -1.8125,1.730469 -3.03125,2.28125 -1.21875,0.5546875 -2.578125,0.828125 -4.078125,0.828125 -1.8125,0 -3.429688,-0.382813 -4.84375,-1.15625 C 4.019531,-1.671875 2.910156,-2.78125 2.109375,-4.21875 1.316406,-5.65625 0.921875,-7.332031 0.921875,-9.25 c 0,-1.925781 0.390625,-3.609375 1.171875,-5.046875 0.789062,-1.4375 1.894531,-2.539063 3.3125,-3.3125 1.414062,-0.78125 3.039062,-1.171875 4.875,-1.171875 1.789062,0 3.382812,0.382812 4.78125,1.140625 1.394531,0.75 2.484375,1.824219 3.265625,3.21875 0.78125,1.386719 1.171875,3.011719 1.171875,4.875 z m -5.796875,-1.5 c 0,-0.96875 -0.335937,-1.738281 -1,-2.3125 -0.667969,-0.582031 -1.496094,-0.875 -2.484375,-0.875 -0.949219,0 -1.75,0.277344 -2.40625,0.828125 -0.65625,0.554688 -1.0625,1.339844 -1.21875,2.359375 z m 0,0"
               id="path36" />
          </g>
        </g>
      </g>
      <g
         fill="#000000"
         fill-opacity="0.051"
         id="g42"
         transform="translate(-27.61383,-109.13328)">
        <g
           transform="translate(257.1169,195.99513)"
           id="g41">
          <g
             id="g40">
            <path
               d="m 0.921875,-9.28125 c 0,-1.90625 0.359375,-3.578125 1.078125,-5.015625 0.71875,-1.4375 1.695312,-2.539063 2.9375,-3.3125 1.238281,-0.78125 2.625,-1.171875 4.15625,-1.171875 1.207031,0 2.316406,0.257812 3.328125,0.765625 1.007813,0.511719 1.800781,1.199219 2.375,2.0625 v -8.59375 H 20.46875 V 0 h -5.671875 v -2.65625 c -0.53125,0.886719 -1.292969,1.59375 -2.28125,2.125 C 11.535156,0 10.394531,0.265625 9.09375,0.265625 7.5625,0.265625 6.175781,-0.125 4.9375,-0.90625 3.695312,-1.695312 2.71875,-2.816406 2,-4.265625 1.28125,-5.710938 0.921875,-7.382812 0.921875,-9.28125 Z m 13.875,0.03125 c 0,-1.414062 -0.398437,-2.53125 -1.1875,-3.34375 -0.78125,-0.820312 -1.734375,-1.234375 -2.859375,-1.234375 -1.125,0 -2.085938,0.40625 -2.875,1.21875 -0.78125,0.804687 -1.171875,1.914063 -1.171875,3.328125 0,1.40625 0.390625,2.527344 1.171875,3.359375 0.789062,0.835937 1.75,1.25 2.875,1.25 1.125,0 2.078125,-0.40625 2.859375,-1.21875 0.789063,-0.820313 1.1875,-1.941406 1.1875,-3.359375 z m 0,0"
               id="path39" />
          </g>
        </g>
      </g>
      <g
         fill="#000000"
         fill-opacity="0.051"
         id="g45"
         transform="translate(-27.61383,-109.13328)">
        <g
           transform="translate(279.63114,195.99513)"
           id="g44">
          <g
             id="g43">
            <path
               d="m 9.09375,-18.78125 c 1.300781,0 2.441406,0.265625 3.421875,0.796875 0.988281,0.53125 1.75,1.230469 2.28125,2.09375 v -2.625 H 20.46875 V -0.03125 c 0,1.695312 -0.339844,3.238281 -1.015625,4.625 -0.679687,1.382812 -1.710937,2.484375 -3.09375,3.296875 C 14.984375,8.710938 13.269531,9.125 11.21875,9.125 8.46875,9.125 6.238281,8.472656 4.53125,7.171875 2.832031,5.878906 1.863281,4.128906 1.625,1.921875 h 5.609375 c 0.175781,0.707031 0.59375,1.265625 1.25,1.671875 0.664063,0.414062 1.488281,0.625 2.46875,0.625 1.164063,0 2.097656,-0.339844 2.796875,-1.015625 0.695312,-0.679687 1.046875,-1.757813 1.046875,-3.234375 v -2.625 C 14.242188,-1.789062 13.476562,-1.085938 12.5,-0.546875 11.53125,-0.00390625 10.394531,0.265625 9.09375,0.265625 7.5625,0.265625 6.175781,-0.125 4.9375,-0.90625 3.695312,-1.695312 2.71875,-2.816406 2,-4.265625 1.28125,-5.710938 0.921875,-7.382812 0.921875,-9.28125 c 0,-1.90625 0.359375,-3.578125 1.078125,-5.015625 0.71875,-1.4375 1.695312,-2.539063 2.9375,-3.3125 1.238281,-0.78125 2.625,-1.171875 4.15625,-1.171875 z M 14.796875,-9.25 c 0,-1.414062 -0.398437,-2.53125 -1.1875,-3.34375 -0.78125,-0.820312 -1.734375,-1.234375 -2.859375,-1.234375 -1.125,0 -2.085938,0.40625 -2.875,1.21875 -0.78125,0.804687 -1.171875,1.914063 -1.171875,3.328125 0,1.40625 0.390625,2.527344 1.171875,3.359375 0.789062,0.835937 1.75,1.25 2.875,1.25 1.125,0 2.078125,-0.40625 2.859375,-1.21875 0.789063,-0.820313 1.1875,-1.941406 1.1875,-3.359375 z m 0,0"
               id="path42" />
          </g>
        </g>
      </g>
      <g
         fill="#000000"
         fill-opacity="0.051"
         id="g48"
         transform="translate(-27.61383,-109.13328)">
        <g
           transform="translate(302.14538,195.99513)"
           id="g47">
          <g
             id="g46">
            <path
               d="m 19.5,-9.546875 c 0,0.53125 -0.03125,1.085937 -0.09375,1.65625 H 6.5625 c 0.09375,1.148437 0.460938,2.027344 1.109375,2.640625 0.65625,0.605469 1.457031,0.90625 2.40625,0.90625 1.414063,0 2.398437,-0.597656 2.953125,-1.796875 h 6.046875 c -0.3125,1.21875 -0.875,2.320313 -1.6875,3.296875 -0.804687,0.96875 -1.8125,1.730469 -3.03125,2.28125 -1.21875,0.5546875 -2.578125,0.828125 -4.078125,0.828125 -1.8125,0 -3.429688,-0.382813 -4.84375,-1.15625 C 4.019531,-1.671875 2.910156,-2.78125 2.109375,-4.21875 1.316406,-5.65625 0.921875,-7.332031 0.921875,-9.25 c 0,-1.925781 0.390625,-3.609375 1.171875,-5.046875 0.789062,-1.4375 1.894531,-2.539063 3.3125,-3.3125 1.414062,-0.78125 3.039062,-1.171875 4.875,-1.171875 1.789062,0 3.382812,0.382812 4.78125,1.140625 1.394531,0.75 2.484375,1.824219 3.265625,3.21875 0.78125,1.386719 1.171875,3.011719 1.171875,4.875 z m -5.796875,-1.5 c 0,-0.96875 -0.335937,-1.738281 -1,-2.3125 -0.667969,-0.582031 -1.496094,-0.875 -2.484375,-0.875 -0.949219,0 -1.75,0.277344 -2.40625,0.828125 -0.65625,0.554688 -1.0625,1.339844 -1.21875,2.359375 z m 0,0"
               id="path45" />
          </g>
        </g>
      </g>
      <g
         fill="#000000"
         fill-opacity="0.051"
         id="g51"
         transform="translate(-27.61383,-109.13328)">
        <g
           transform="translate(322.57066,195.99513)"
           id="g50">
          <g
             id="g49">
            <path
               d="m 7.734375,-15.421875 c 0.65625,-1.019531 1.476563,-1.820313 2.46875,-2.40625 1,-0.582031 2.109375,-0.875 3.328125,-0.875 v 6 h -1.5625 c -1.40625,0 -2.464844,0.308594 -3.171875,0.921875 -0.710937,0.605469 -1.0625,1.667969 -1.0625,3.1875 V 0 H 2.0625 v -18.515625 h 5.671875 z m 0,0"
               id="path48" />
          </g>
        </g>
      </g>
      <g
         fill="#ff7723"
         fill-opacity="1"
         id="g54"
         transform="translate(-27.61383,-109.13328)">
        <g
           transform="translate(130.65254,195.99513)"
           id="g53">
          <g
             id="g52">
            <path
               d="m 7.734375,-15.890625 c 0.550781,-0.863281 1.3125,-1.5625 2.28125,-2.09375 0.976563,-0.53125 2.117187,-0.796875 3.421875,-0.796875 1.519531,0 2.898438,0.390625 4.140625,1.171875 1.238281,0.773437 2.21875,1.875 2.9375,3.3125 0.71875,1.4375 1.078125,3.109375 1.078125,5.015625 0,1.898438 -0.359375,3.570312 -1.078125,5.015625 -0.71875,1.449219 -1.699219,2.570313 -2.9375,3.359375 C 16.335938,-0.125 14.957031,0.265625 13.4375,0.265625 12.15625,0.265625 11.019531,0 10.03125,-0.53125 9.050781,-1.0625 8.285156,-1.75 7.734375,-2.59375 V 8.828125 H 2.0625 v -27.34375 h 5.671875 z m 8.09375,6.609375 c 0,-1.414062 -0.398437,-2.523438 -1.1875,-3.328125 -0.78125,-0.8125 -1.746094,-1.21875 -2.890625,-1.21875 -1.136719,0 -2.09375,0.414063 -2.875,1.234375 -0.78125,0.8125 -1.171875,1.929688 -1.171875,3.34375 0,1.417969 0.390625,2.539062 1.171875,3.359375 0.78125,0.8125 1.738281,1.21875 2.875,1.21875 1.125,0 2.082031,-0.414063 2.875,-1.25 0.800781,-0.832031 1.203125,-1.953125 1.203125,-3.359375 z m 0,0"
               id="path51" />
          </g>
        </g>
      </g>
      <g
         fill="#ff7723"
         fill-opacity="1"
         id="g57"
         transform="translate(-27.61383,-109.13328)">
        <g
           transform="translate(153.16678,195.99513)"
           id="g56">
          <g
             id="g55">
            <path
               d="m 10.484375,0.265625 c -1.8125,0 -3.445313,-0.382813 -4.890625,-1.15625 -1.449219,-0.78125 -2.589844,-1.890625 -3.421875,-3.328125 -0.835937,-1.4375 -1.25,-3.113281 -1.25,-5.03125 0,-1.90625 0.421875,-3.582031 1.265625,-5.03125 0.84375,-1.445312 1.992188,-2.554688 3.453125,-3.328125 1.457031,-0.78125 3.09375,-1.171875 4.90625,-1.171875 1.8125,0 3.445313,0.390625 4.90625,1.171875 1.457031,0.773437 2.609375,1.882813 3.453125,3.328125 0.84375,1.449219 1.265625,3.125 1.265625,5.03125 0,1.898438 -0.429687,3.570312 -1.28125,5.015625 -0.855469,1.449219 -2.015625,2.5625 -3.484375,3.34375 -1.46875,0.773437 -3.109375,1.15625 -4.921875,1.15625 z m 0,-4.90625 c 1.082031,0 2.003906,-0.394531 2.765625,-1.1875 0.757812,-0.800781 1.140625,-1.941406 1.140625,-3.421875 0,-1.488281 -0.371094,-2.628906 -1.109375,-3.421875 -0.742188,-0.789063 -1.652344,-1.1875 -2.734375,-1.1875 -1.105469,0 -2.023437,0.390625 -2.75,1.171875 -0.730469,0.78125 -1.09375,1.929688 -1.09375,3.4375 0,1.480469 0.359375,2.621094 1.078125,3.421875 0.71875,0.792969 1.617188,1.1875 2.703125,1.1875 z m 0,0"
               id="path54" />
          </g>
        </g>
      </g>
      <g
         fill="#ff7723"
         fill-opacity="1"
         id="g60"
         transform="translate(-27.61383,-109.13328)">
        <g
           transform="translate(174.28838,195.99513)"
           id="g59">
          <g
             id="g58">
            <path
               d="m 4.90625,-20.4375 c -0.992188,0 -1.804688,-0.289062 -2.4375,-0.875 -0.625,-0.582031 -0.9375,-1.304688 -0.9375,-2.171875 0,-0.882813 0.3125,-1.617187 0.9375,-2.203125 0.632812,-0.59375 1.445312,-0.890625 2.4375,-0.890625 0.976562,0 1.78125,0.296875 2.40625,0.890625 0.632812,0.585938 0.953125,1.320312 0.953125,2.203125 0,0.867187 -0.320313,1.589844 -0.953125,2.171875 -0.625,0.585938 -1.429688,0.875 -2.40625,0.875 z m 2.828125,1.921875 V 0 H 2.0625 v -18.515625 z m 0,0"
               id="path57" />
          </g>
        </g>
      </g>
      <g
         fill="#ff7723"
         fill-opacity="1"
         id="g63"
         transform="translate(-27.61383,-109.13328)">
        <g
           transform="translate(184.06997,195.99513)"
           id="g62">
          <g
             id="g61">
            <path
               d="m 13.328125,-18.703125 c 2.175781,0 3.910156,0.703125 5.203125,2.109375 1.289062,1.398438 1.9375,3.324219 1.9375,5.78125 V 0 h -5.640625 v -10.046875 c 0,-1.238281 -0.324219,-2.203125 -0.96875,-2.890625 -0.636719,-0.6875 -1.496094,-1.03125 -2.578125,-1.03125 -1.085938,0 -1.949219,0.34375 -2.59375,1.03125 -0.636719,0.6875 -0.953125,1.652344 -0.953125,2.890625 V 0 H 2.0625 v -18.515625 h 5.671875 v 2.453125 c 0.570313,-0.8125 1.34375,-1.453125 2.3125,-1.921875 0.976563,-0.476563 2.070313,-0.71875 3.28125,-0.71875 z m 0,0"
               id="path60" />
          </g>
        </g>
      </g>
      <g
         fill="#ff7723"
         fill-opacity="1"
         id="g66"
         transform="translate(-27.61383,-109.13328)">
        <g
           transform="translate(206.41842,195.99513)"
           id="g65">
          <g
             id="g64">
            <path
               d="M 12.375,-4.8125 V 0 H 9.484375 C 7.429688,0 5.828125,-0.5 4.671875,-1.5 3.523438,-2.507812 2.953125,-4.15625 2.953125,-6.4375 v -7.359375 h -2.25 v -4.71875 h 2.25 v -4.5 H 8.625 v 4.5 h 3.71875 v 4.71875 H 8.625 V -6.375 c 0,0.554688 0.128906,0.953125 0.390625,1.203125 0.269531,0.242187 0.710937,0.359375 1.328125,0.359375 z m 0,0"
               id="path63" />
          </g>
        </g>
      </g>
      <g
         fill="#ff7723"
         fill-opacity="1"
         id="g72"
         transform="translate(-27.61383,-109.13328)">
        <g
           transform="translate(226.91002,195.99513)"
           id="g71">
          <g
             id="g70">
            <path
               d="M 7.734375,-24.546875 V 0 H 2.0625 v -24.546875 z m 0,0"
               id="path69" />
          </g>
        </g>
      </g>
      <g
         fill="#ff7723"
         fill-opacity="1"
         id="g75"
         transform="translate(-27.61383,-109.13328)">
        <g
           transform="translate(236.69162,195.99513)"
           id="g74">
          <g
             id="g73">
            <path
               d="m 19.5,-9.546875 c 0,0.53125 -0.03125,1.085937 -0.09375,1.65625 H 6.5625 c 0.09375,1.148437 0.460938,2.027344 1.109375,2.640625 0.65625,0.605469 1.457031,0.90625 2.40625,0.90625 1.414063,0 2.398437,-0.597656 2.953125,-1.796875 h 6.046875 c -0.3125,1.21875 -0.875,2.320313 -1.6875,3.296875 -0.804687,0.96875 -1.8125,1.730469 -3.03125,2.28125 -1.21875,0.5546875 -2.578125,0.828125 -4.078125,0.828125 -1.8125,0 -3.429688,-0.382813 -4.84375,-1.15625 C 4.019531,-1.671875 2.910156,-2.78125 2.109375,-4.21875 1.316406,-5.65625 0.921875,-7.332031 0.921875,-9.25 c 0,-1.925781 0.390625,-3.609375 1.171875,-5.046875 0.789062,-1.4375 1.894531,-2.539063 3.3125,-3.3125 1.414062,-0.78125 3.039062,-1.171875 4.875,-1.171875 1.789062,0 3.382812,0.382812 4.78125,1.140625 1.394531,0.75 2.484375,1.824219 3.265625,3.21875 0.78125,1.386719 1.171875,3.011719 1.171875,4.875 z m -5.796875,-1.5 c 0,-0.96875 -0.335937,-1.738281 -1,-2.3125 -0.667969,-0.582031 -1.496094,-0.875 -2.484375,-0.875 -0.949219,0 -1.75,0.277344 -2.40625,0.828125 -0.65625,0.554688 -1.0625,1.339844 -1.21875,2.359375 z m 0,0"
               id="path72" />
          </g>
        </g>
      </g>
      <g
         fill="#ff7723"
         fill-opacity="1"
         id="g78"
         transform="translate(-27.61383,-109.13328)">
        <g
           transform="translate(257.1169,195.99513)"
           id="g77">
          <g
             id="g76">
            <path
               d="m 0.921875,-9.28125 c 0,-1.90625 0.359375,-3.578125 1.078125,-5.015625 0.71875,-1.4375 1.695312,-2.539063 2.9375,-3.3125 1.238281,-0.78125 2.625,-1.171875 4.15625,-1.171875 1.207031,0 2.316406,0.257812 3.328125,0.765625 1.007813,0.511719 1.800781,1.199219 2.375,2.0625 v -8.59375 H 20.46875 V 0 h -5.671875 v -2.65625 c -0.53125,0.886719 -1.292969,1.59375 -2.28125,2.125 C 11.535156,0 10.394531,0.265625 9.09375,0.265625 7.5625,0.265625 6.175781,-0.125 4.9375,-0.90625 3.695312,-1.695312 2.71875,-2.816406 2,-4.265625 1.28125,-5.710938 0.921875,-7.382812 0.921875,-9.28125 Z m 13.875,0.03125 c 0,-1.414062 -0.398437,-2.53125 -1.1875,-3.34375 -0.78125,-0.820312 -1.734375,-1.234375 -2.859375,-1.234375 -1.125,0 -2.085938,0.40625 -2.875,1.21875 -0.78125,0.804687 -1.171875,1.914063 -1.171875,3.328125 0,1.40625 0.390625,2.527344 1.171875,3.359375 0.789062,0.835937 1.75,1.25 2.875,1.25 1.125,0 2.078125,-0.40625 2.859375,-1.21875 0.789063,-0.820313 1.1875,-1.941406 1.1875,-3.359375 z m 0,0"
               id="path75" />
          </g>
        </g>
      </g>
      <g
         fill="#ff7723"
         fill-opacity="1"
         id="g81"
         transform="translate(-27.61383,-109.13328)">
        <g
           transform="translate(279.63114,195.99513)"
           id="g80">
          <g
             id="g79">
            <path
               d="m 9.09375,-18.78125 c 1.300781,0 2.441406,0.265625 3.421875,0.796875 0.988281,0.53125 1.75,1.230469 2.28125,2.09375 v -2.625 H 20.46875 V -0.03125 c 0,1.695312 -0.339844,3.238281 -1.015625,4.625 -0.679687,1.382812 -1.710937,2.484375 -3.09375,3.296875 C 14.984375,8.710938 13.269531,9.125 11.21875,9.125 8.46875,9.125 6.238281,8.472656 4.53125,7.171875 2.832031,5.878906 1.863281,4.128906 1.625,1.921875 h 5.609375 c 0.175781,0.707031 0.59375,1.265625 1.25,1.671875 0.664063,0.414062 1.488281,0.625 2.46875,0.625 1.164063,0 2.097656,-0.339844 2.796875,-1.015625 0.695312,-0.679687 1.046875,-1.757813 1.046875,-3.234375 v -2.625 C 14.242188,-1.789062 13.476562,-1.085938 12.5,-0.546875 11.53125,-0.00390625 10.394531,0.265625 9.09375,0.265625 7.5625,0.265625 6.175781,-0.125 4.9375,-0.90625 3.695312,-1.695312 2.71875,-2.816406 2,-4.265625 1.28125,-5.710938 0.921875,-7.382812 0.921875,-9.28125 c 0,-1.90625 0.359375,-3.578125 1.078125,-5.015625 0.71875,-1.4375 1.695312,-2.539063 2.9375,-3.3125 1.238281,-0.78125 2.625,-1.171875 4.15625,-1.171875 z M 14.796875,-9.25 c 0,-1.414062 -0.398437,-2.53125 -1.1875,-3.34375 -0.78125,-0.820312 -1.734375,-1.234375 -2.859375,-1.234375 -1.125,0 -2.085938,0.40625 -2.875,1.21875 -0.78125,0.804687 -1.171875,1.914063 -1.171875,3.328125 0,1.40625 0.390625,2.527344 1.171875,3.359375 0.789062,0.835937 1.75,1.25 2.875,1.25 1.125,0 2.078125,-0.40625 2.859375,-1.21875 0.789063,-0.820313 1.1875,-1.941406 1.1875,-3.359375 z m 0,0"
               id="path78" />
          </g>
        </g>
      </g>
      <g
         fill="#ff7723"
         fill-opacity="1"
         id="g84"
         transform="translate(-27.61383,-109.13328)">
        <g
           transform="translate(302.14538,195.99513)"
           id="g83">
          <g
             id="g82">
            <path
               d="m 19.5,-9.546875 c 0,0.53125 -0.03125,1.085937 -0.09375,1.65625 H 6.5625 c 0.09375,1.148437 0.460938,2.027344 1.109375,2.640625 0.65625,0.605469 1.457031,0.90625 2.40625,0.90625 1.414063,0 2.398437,-0.597656 2.953125,-1.796875 h 6.046875 c -0.3125,1.21875 -0.875,2.320313 -1.6875,3.296875 -0.804687,0.96875 -1.8125,1.730469 -3.03125,2.28125 -1.21875,0.5546875 -2.578125,0.828125 -4.078125,0.828125 -1.8125,0 -3.429688,-0.382813 -4.84375,-1.15625 C 4.019531,-1.671875 2.910156,-2.78125 2.109375,-4.21875 1.316406,-5.65625 0.921875,-7.332031 0.921875,-9.25 c 0,-1.925781 0.390625,-3.609375 1.171875,-5.046875 0.789062,-1.4375 1.894531,-2.539063 3.3125,-3.3125 1.414062,-0.78125 3.039062,-1.171875 4.875,-1.171875 1.789062,0 3.382812,0.382812 4.78125,1.140625 1.394531,0.75 2.484375,1.824219 3.265625,3.21875 0.78125,1.386719 1.171875,3.011719 1.171875,4.875 z m -5.796875,-1.5 c 0,-0.96875 -0.335937,-1.738281 -1,-2.3125 -0.667969,-0.582031 -1.496094,-0.875 -2.484375,-0.875 -0.949219,0 -1.75,0.277344 -2.40625,0.828125 -0.65625,0.554688 -1.0625,1.339844 -1.21875,2.359375 z m 0,0"
               id="path81" />
          </g>
        </g>
      </g>
      <g
         fill="#ff7723"
         fill-opacity="1"
         id="g87"
         transform="translate(-27.61383,-109.13328)">
        <g
           transform="translate(322.57066,195.99513)"
           id="g86">
          <g
             id="g85">
            <path
               d="m 7.734375,-15.421875 c 0.65625,-1.019531 1.476563,-1.820313 2.46875,-2.40625 1,-0.582031 2.109375,-0.875 3.328125,-0.875 v 6 h -1.5625 c -1.40625,0 -2.464844,0.308594 -3.171875,0.921875 -0.710937,0.605469 -1.0625,1.667969 -1.0625,3.1875 V 0 H 2.0625 v -18.515625 h 5.671875 z m 0,0"
               id="path84" />
          </g>
        </g>
      </g>
    </g>
  </g>
</svg>
